<svg xmlns="http://www.w3.org/2000/svg" viewBox="0 0 720 405" width="720" height="405" role="img" aria-label="Sécurité des données">
  <defs>
    <linearGradient id="g6" x1="0" y1="0" x2="720" y2="405" gradientUnits="userSpaceOnUse">
      <stop offset="0" stop-color="#1A050A"/><stop offset="0.55" stop-color="#2A0A14"/><stop offset="1" stop-color="#0C0406"/>
    </linearGradient>
    <linearGradient id="o6" x1="0" y1="0" x2="1" y2="1">
      <stop offset="0" stop-color="#FFAA00"/><stop offset="1" stop-color="#FF3D00"/>
    </linearGradient>
    <radialGradient id="glow6" cx="0.5" cy="0.45" r="0.6">
      <stop offset="0" stop-color="#FF6B00" stop-opacity="0.3"/><stop offset="1" stop-color="#FF6B00" stop-opacity="0"/>
    </radialGradient>
  </defs>
  <rect width="720" height="405" fill="url(#g6)"/>
  <g fill="#FF6B00" opacity="0.14">
    <circle cx="60" cy="50" r="1.4"/><circle cx="150" cy="90" r="1.4"/><circle cx="250" cy="40" r="1.4"/><circle cx="470" cy="60" r="1.4"/><circle cx="570" cy="100" r="1.4"/><circle cx="670" cy="50" r="1.4"/><circle cx="90" cy="310" r="1.4"/><circle cx="640" cy="320" r="1.4"/><circle cx="350" cy="60" r="1.4"/>
  </g>
  <rect width="720" height="405" fill="url(#glow6)"/>
  <!-- Orbites -->
  <g stroke="#FF6B00" stroke-width="1.6" fill="none" opacity="0.5">
    <ellipse cx="360" cy="200" rx="250" ry="86" transform="rotate(-16 360 200)"/>
    <ellipse cx="360" cy="200" rx="250" ry="86" transform="rotate(16 360 200)"/>
  </g>
  <g fill="#FFAA00">
    <circle cx="150" cy="130" r="5"/><circle cx="580" cy="270" r="5"/><circle cx="560" cy="120" r="4" opacity="0.7"/><circle cx="170" cy="280" r="4" opacity="0.7"/>
  </g>
  <!-- Bouclier -->
  <g transform="translate(360 200)">
    <path d="M0 -130c40 22 84 30 116 32 6 58-8 154-116 208C-108 56-122-40-116-98-84-100-40-108 0-130z" fill="#0D0908" stroke="url(#o6)" stroke-width="5" stroke-linejoin="round"/>
    <path d="M0 -130c40 22 84 30 116 32 6 58-8 154-116 208z" fill="#FF6B00" opacity="0.12"/>
    <!-- Cadenas central -->
    <g stroke="#FFAA00" stroke-width="4" fill="none" stroke-linecap="round">
      <rect x="-30" y="-14" width="60" height="48" rx="9" fill="url(#o6)" stroke="none"/>
      <path d="M-18 -14v-16a18 18 0 0 1 36 0v16"/>
      <circle cx="0" cy="8" r="7" fill="#0A0A0A" stroke="none"/>
      <path d="M0 12v8" stroke="#0A0A0A" stroke-width="4"/>
    </g>
  </g>
  <!-- Silhouette mascotte discrète (tête) -->
  <g transform="translate(120 320) scale(0.32)" opacity="0.55">
    <ellipse cx="49" cy="55" rx="17" ry="16" fill="#FF6B00"/>
    <ellipse cx="191" cy="55" rx="17" ry="16" fill="#FF6B00"/>
    <path d="M120 32c-51 0-84 32-84 76 0 16 5 28 14 36 6 5 14 8 24 9 14 1 30-4 46-4s32 5 46 4c10-1 18-4 24-9 9-8 14-20 14-36 0-44-33-76-84-76Z" fill="#FF6B00"/>
    <ellipse cx="87" cy="108" rx="16" ry="18" fill="#0A0A0A"/>
    <ellipse cx="153" cy="108" rx="16" ry="18" fill="#0A0A0A"/>
    <path d="M50 150c22 10 45 14 70 14s48-4 70-14c-4 12-13 21-25 26-13 6-29 9-45 9s-32-3-45-9c-12-5-21-14-25-26Z" fill="#0A0A0A"/>
    <ellipse cx="64" cy="206" rx="21" ry="20" fill="#FF6B00"/>
    <ellipse cx="176" cy="206" rx="21" ry="20" fill="#FF6B00"/>
  </g>
  <path d="M0 385q60 -14 120 0t120 0 120 0 120 0 120 0 120 0" fill="none" stroke="#FF6B00" stroke-width="2" opacity="0.35"/>
</svg>
